<?xml version="1.0" encoding="utf-8"?>
<!-- Generator: Adobe Illustrator 19.1.0, SVG Export Plug-In . SVG Version: 6.00 Build 0)  -->
<!DOCTYPE svg PUBLIC "-//W3C//DTD SVG 1.1//EN" "http://www.w3.org/Graphics/SVG/1.1/DTD/svg11.dtd">
<svg version="1.1" id="Layer_1" xmlns="http://www.w3.org/2000/svg" xmlns:xlink="http://www.w3.org/1999/xlink" x="0px" y="0px"
	 viewBox="0 0 24 24" style="enable-background:new 0 0 24 24;" xml:space="preserve">
<style type="text/css">
	.Drop_x0020_Shadow{fill:none;}
	.Outer_x0020_Glow_x0020_5_x0020_pt{fill:none;}
	.Blue_x0020_Neon{fill:none;stroke:#8AACDA;stroke-width:7;stroke-linecap:round;stroke-linejoin:round;}
	.Chrome_x0020_Highlight{fill:url(#SVGID_1_);stroke:#FFFFFF;stroke-width:0.3629;stroke-miterlimit:1;}
	.Jive_GS{fill:#FFDD00;}
	.Alyssa_GS{fill:#A6D0E4;}
	.st0{fill:#377F78;}
	.st1{fill:url(#SVGID_2_);}
</style>
<linearGradient id="SVGID_1_" gradientUnits="userSpaceOnUse" x1="-52" y1="-52" x2="-52" y2="-53">
	<stop  offset="0" style="stop-color:#656565"/>
	<stop  offset="0.618" style="stop-color:#1B1B1B"/>
	<stop  offset="0.6292" style="stop-color:#545454"/>
	<stop  offset="0.9831" style="stop-color:#3E3E3E"/>
</linearGradient>
<polygon class="st0" points="23.8,9 23.8,9 11.9,8.4 9.2,10.8 9.2,10.8 6.9,12.8 6.9,12.8 3.6,15.6 3.6,15.6 3.2,15.9 23.6,20.4 
	23.7,12.6 23.7,12.6 23.8,9 "/>
<linearGradient id="SVGID_2_" gradientUnits="userSpaceOnUse" x1="15.5539" y1="19.4643" x2="10.0206" y2="4.2616">
	<stop  offset="0" style="stop-color:#3F9D88"/>
	<stop  offset="1" style="stop-color:#48B49D"/>
</linearGradient>
<polygon class="st1" points="22.9,4.9 22.9,4.9 9.8,4.3 6.9,6.8 6.9,6.8 4.3,8.9 4.3,8.9 0.7,11.9 0.7,11.9 0.2,12.2 22.6,16.9 
	22.8,8.7 22.8,8.7 22.9,4.9 "/>
</svg>
